<?xml version="1.0" encoding="UTF-8" standalone="no"?><!DOCTYPE svg PUBLIC "-//W3C//DTD SVG 1.1//EN" "http://www.w3.org/Graphics/SVG/1.1/DTD/svg11.dtd"><svg width="100%" height="100%" viewBox="0 0 9420 3248" version="1.1" xmlns="http://www.w3.org/2000/svg" xmlns:xlink="http://www.w3.org/1999/xlink" xml:space="preserve" xmlns:serif="http://www.serif.com/" style="fill-rule:evenodd;clip-rule:evenodd;stroke-linejoin:round;stroke-miterlimit:2;"><rect id="Artboard1" x="0" y="0" width="9419.94" height="3247.87" style="fill:none;"/><g><path d="M2542.65,119.974c-16.562,3.125 -79.687,21.562 -191.562,56.25c-36.25,11.25 -549.375,168.125 -580.625,177.5c-132.5,39.687 -240.313,74.687 -257.813,83.437c-74.687,37.5 -133.437,109.688 -157.187,192.188l-6.875,23.437l-0.938,522.5c-0.312,287.5 -1.562,522.813 -2.187,522.813c-0.938,-0 -10.313,-3.438 -20.938,-7.813c-43.125,-16.875 -55.625,-18.75 -127.5,-18.75c-62.812,0 -69.687,0.625 -106.25,9.063c-99.687,22.812 -186.25,66.562 -250.937,126.875c-14.688,13.75 -28.125,25 -29.688,25c-7.812,-0 -25,-100.938 -28.437,-166.563c-11.563,-222.812 62.5,-431.875 211.875,-598.437c41.875,-46.563 120,-113.75 160.312,-137.5l8.75,-5l0,-239.375l-19.375,9.687c-258.437,130.313 -451.562,362.188 -532.187,638.75c-27.813,95.938 -39.688,180 -39.688,284.375c-0.312,96.25 8.125,167.188 30.313,254.688c83.125,329.687 324.375,598.437 645.312,718.75c74.063,27.812 178.125,51.562 259.375,59.375c43.125,4.062 155.313,4.062 196.875,-0c285,-28.75 536.25,-165.625 715,-390c14.063,-17.5 26.875,-34.688 28.75,-38.125c3.125,-5.625 2.813,-5.625 -17.187,-0c-74.063,21.25 -178.75,30.312 -252.188,21.875l-27.187,-3.125l-27.5,22.187c-58.125,46.875 -140.313,95.625 -205.625,121.563c-139.375,55.937 -295.625,74.062 -439.063,51.25c-96.562,-15.313 -203.437,-52.813 -282.187,-99.063c-28.125,-16.875 -34.688,-24.062 -21.563,-24.062c10.938,-0 79.063,-25 107.188,-39.375c44.687,-22.188 78.437,-45.938 113.125,-79.063c63.437,-60.625 100.937,-126.875 114.687,-201.875c2.188,-12.812 3.125,-158.125 3.438,-460.937c-0,-270.313 1.25,-450.625 3.125,-463.75c1.562,-12.5 6.562,-28.125 11.25,-36.875c11.25,-20.625 43.125,-49.688 67.187,-61.563c16.25,-7.812 208.125,-68.75 666.563,-211.875c36.25,-11.25 82.5,-25.625 103.125,-32.187c102.187,-32.5 111.875,-35.313 131.25,-35.313c33.125,0 50.937,13.125 57.5,41.875c4.062,16.563 4.687,712.188 0.937,712.188c-1.562,-0 -13.75,-4.063 -27.5,-9.063c-47.5,-17.187 -70.937,-20.625 -146.562,-20.625c-60.313,0 -73.125,0.938 -104.688,7.5c-103.125,21.25 -192.5,68.125 -260.937,136.25c-65,65 -98.438,129.688 -108.125,209.375c-6.25,51.875 6.25,110.625 33.75,155.313c15.625,26.25 52.187,64.062 79.062,81.875c77.813,52.5 185.625,74.062 295.938,59.687c119.375,-15.937 220.312,-64.062 299.375,-143.437c68.125,-68.438 100.312,-133.438 107.812,-217.5c2.188,-24.063 3.125,-272.813 2.5,-748.438c-0.937,-711.25 -0.937,-712.5 -7.5,-731.25c-13.75,-40 -31.562,-64.062 -60.937,-83.125c-28.75,-18.125 -78.125,-27.812 -113.438,-21.562Z" style="fill:#f20;fill-rule:nonzero;"/><path d="M1473.59,134.036c-311.563,30 -583.438,141.563 -824.375,338.125c-51.25,41.875 -153.438,143.125 -194.688,193.125c-85,103.125 -144.375,195 -200.937,311.563c-64.375,132.5 -105.625,259.687 -128.125,396.25c-14.375,85.312 -19.063,136.25 -21.25,223.437c-7.813,335 94.062,654.688 294.375,925c60.312,81.563 151.25,179.688 226.562,244.375c210.625,180.938 469.063,301.25 739.688,344.375c137.5,22.188 291.562,25 425.937,7.813c431.563,-54.375 820,-294.688 1060.94,-655.938c126.25,-189.375 205.312,-394.062 237.5,-615.625c4.062,-27.5 6.562,-50.625 5.625,-51.562c-0.938,-0.938 -4.063,1.875 -6.875,6.25c-10.313,15.937 -64.688,80.625 -89.063,106.25c-55.312,58.437 -135.312,128.125 -194.375,169.375c-21.562,15 -23.437,17.5 -32.812,39.687c-60.938,146.875 -155.313,287.5 -271.563,403.75c-102.187,102.188 -208.437,179.063 -333.125,241.25c-332.812,165.938 -715.937,176.875 -1060.62,30.313c-142.187,-60.313 -268.125,-144.688 -382.5,-256.25c-110.937,-108.125 -191.562,-218.75 -256.562,-351.563c-156.563,-320.625 -170.625,-690.937 -38.75,-1022.5c98.75,-248.125 279.062,-463.75 506.562,-605.312c77.813,-48.438 166.25,-91.25 252.5,-121.875l32.813,-11.875l18.75,-26.875c27.5,-40 83.437,-94.688 124.687,-122.188c61.563,-40.937 70.625,-44.687 237.5,-95.625c70.625,-21.562 128.75,-40 129.688,-40.625c4.687,-5 -13.125,-5.937 -108.438,-6.562c-70.625,-0.625 -119.687,0.625 -149.062,3.437Z" style="fill-rule:nonzero;"/><path d="M5368.59,1054.35c-34.063,5.625 -65.313,31.562 -77.5,64.375c-6.875,18.125 -6.875,20 -5.625,152.812c1.562,144.063 1.562,146.563 19.687,203.125c23.438,73.438 73.75,148.438 130.625,195c45,36.875 100.313,67.188 149.063,82.188l23.75,7.187l2.187,124.375c2.5,134.688 2.813,137.188 20.625,163.438c43.125,62.187 141.563,52.5 174.688,-17.5l8.125,-17.188l-0,-125.937l0.312,-125.938l32.188,-10.937c112.812,-37.813 200.625,-115.313 251.875,-221.563c38.125,-79.687 42.5,-105.937 42.187,-269.062c0,-131.563 -0.312,-135.938 -14.375,-157.5c-21.25,-32.188 -47.812,-47.188 -84.687,-47.5c-34.375,-0.313 -62.813,13.75 -82.813,40.937c-18.75,25.938 -19.062,27.5 -21.25,170.625c-1.875,120.313 -2.5,132.813 -8.437,152.188c-23.125,73.75 -73.125,122.187 -147.813,142.187c-28.75,7.813 -108.75,7.813 -137.5,0c-74.062,-19.687 -125.312,-69.687 -147.187,-142.812c-6.563,-22.188 -7.188,-30.938 -8.75,-154.688l-1.875,-131.25l-8.125,-17.187c-11.563,-24.688 -25.313,-39.063 -47.5,-49.688c-21.563,-10 -40.313,-13.125 -61.875,-9.687Z" style="fill-rule:nonzero;"/><path d="M6427.34,1054.66c-36.563,5.938 -70.625,35.938 -80,70.938c-2.5,9.062 -3.438,141.875 -3.438,446.875l0,434.375l6.563,18.125c24.375,65 110.937,85 162.187,36.875c16.563,-15.625 26.875,-34.375 31.25,-57.5c1.875,-9.688 3.125,-84.375 3.125,-181.563l0,-165.312l418.438,-0l0.937,175.625l0.938,175.937l9.062,19.375c39.688,85.938 163.438,77.5 189.688,-13.125c4.687,-15.312 3.75,-879.375 -0.625,-892.187c-9.688,-27.813 -36.563,-55.625 -62.813,-64.375c-35.937,-11.875 -77.812,-2.813 -103.437,22.187c-17.188,17.188 -26.25,35.313 -30.313,59.688c-1.875,10.312 -3.125,85 -3.125,165.937l0,147.813l-418.75,-0l0,-151.563c0,-183.125 -0.937,-189.062 -31.562,-220c-19.688,-19.687 -30,-24.375 -66.875,-29.687c-3.438,-0.625 -13.125,-0 -21.25,1.562Z" style="fill-rule:nonzero;"/><path d="M7455.46,1054.66c-35.313,5.625 -67.813,33.438 -80,68.438c-2.5,8.125 -3.438,118.437 -3.438,447.187l0,436.563l6.563,18.125c24.375,65.312 110.937,85 162.5,36.562c8.75,-8.125 18.125,-21.25 23.437,-33.125l9.063,-19.375l0.937,-423.437c0.625,-265 -0.312,-430.938 -2.187,-443.125c-4.063,-25.313 -12.813,-43.75 -29.375,-60c-19.063,-19.375 -29.688,-24.063 -66.25,-29.375c-3.438,-0.625 -13.125,-0 -21.25,1.562Z" style="fill-rule:nonzero;"/><path d="M9157.96,1055.6c-31.875,7.812 -53.438,25.312 -67.813,54.375l-10.312,20.937l-0,881.25l8.125,17.188c10.312,21.875 27.812,39.375 49.687,49.687c23.438,11.25 63.125,11.563 84.688,0.938c21.875,-10.625 38.125,-26.25 48.125,-46.25l9.375,-18.438l0.937,-439.687c0.625,-437.813 0.625,-439.688 -5.625,-456.875c-17.5,-46.25 -70.312,-74.688 -117.187,-63.125Z" style="fill-rule:nonzero;"/><path d="M4216.4,1063.72c-69.375,15 -123.437,45 -174.062,95.937c-51.875,52.813 -84.375,123.125 -92.188,200.625c-4.062,42.813 -4.375,627.813 0,650.313c4.375,23.125 14.688,41.875 30.625,56.875c20.938,19.062 38.125,25.625 67.813,25.937c22.187,0 27.5,-1.25 45.937,-10.312c24.375,-11.875 40.313,-29.375 49.688,-53.75c5.937,-15.313 5.937,-26.875 5.937,-324.688c0,-169.687 1.563,-319.687 3.125,-333.437c8.438,-73.75 51.25,-110.625 129.688,-110.625c65.312,-0 105,25.625 124.687,79.687c2.188,6.563 3.75,113.438 5,342.188l1.563,332.812l8.125,17.5c11.25,23.75 28.125,41.563 49.062,51.875c15.313,7.5 21.563,8.75 44.375,8.75c21.875,0 29.375,-1.25 42.188,-7.812c22.5,-10.938 43.125,-32.813 51.25,-54.375c6.562,-18.125 6.562,-18.125 6.562,-324.688c0,-185 1.25,-318.125 3.438,-335c8.125,-73.125 52.187,-110.937 128.75,-110.937c69.062,-0 108.437,26.875 126.562,85.937c4.375,13.438 5,59.688 5.938,340.625c1.25,355.938 0.312,340 19.687,366.563c5,6.875 15.313,16.875 23.438,22.5c52.812,36.25 123.437,16.875 150.312,-41.563l9.063,-19.375l0.937,-304.687c0.938,-306.563 -0.312,-355 -10.312,-397.5c-13.438,-57.5 -46.563,-116.25 -90,-159.063c-104.375,-103.125 -262.813,-126.25 -391.875,-57.187c-25,13.437 -58.125,36.562 -66.563,46.25c-5,6.562 -13.75,6.25 -19.062,-0.313c-20,-24.062 -90.938,-62.187 -138.75,-74.687c-43.75,-11.563 -109.063,-13.438 -150.938,-4.375Z" style="fill-rule:nonzero;"/><path d="M8350.15,1063.72c-68.437,1.562 -70.625,1.875 -85.937,9.687c-31.25,16.563 -48.125,39.375 -54.375,73.125c-4.688,24.688 -4.688,834.063 -0.313,858.125c9.375,49.063 45.625,80.938 95.313,83.438c43.125,2.187 83.75,-23.438 98.125,-62.813c6.25,-17.5 6.562,-22.812 6.562,-170.937l0,-152.813l168.125,-0.937l167.813,-0.938l17.812,-8.75c34.375,-16.875 55.625,-51.875 55.625,-91.25c0,-40.312 -21.875,-74.375 -58.75,-91.562l-17.812,-8.438l-166.25,-0.937l-166.563,-0.938l0,-230.625l194.688,-0.937l194.375,-0.938l19.375,-9.062c58.437,-26.875 77.187,-95.313 41.25,-149.688c-5.313,-8.125 -15.938,-19.062 -23.75,-24.375c-26.875,-18.75 -23.125,-18.437 -227.5,-19.375c-103.125,-0.312 -219.063,0 -257.813,0.938Z" style="fill-rule:nonzero;"/><path d="M7848.9,1874.35c-47.812,20 -75.625,62.5 -73.125,111.25c2.188,42.812 25.625,78.437 65,99.062c15.625,8.125 20,8.75 50,8.75c28.75,0 34.688,-0.937 48.125,-7.812c21.25,-10.938 44.688,-32.5 53.125,-49.688c30.625,-61.25 7.188,-130.625 -53.75,-159.062c-25.937,-12.188 -63.75,-13.125 -89.375,-2.5Z" style="fill-rule:nonzero;"/></g></svg>