<?xml version="1.0" encoding="UTF-8" standalone="no"?><!DOCTYPE svg PUBLIC "-//W3C//DTD SVG 1.1//EN" "http://www.w3.org/Graphics/SVG/1.1/DTD/svg11.dtd"><svg width="100%" height="100%" viewBox="0 0 39250 13534" version="1.1" xmlns="http://www.w3.org/2000/svg" xmlns:xlink="http://www.w3.org/1999/xlink" xml:space="preserve" xmlns:serif="http://www.serif.com/" style="fill-rule:evenodd;clip-rule:evenodd;stroke-linejoin:round;stroke-miterlimit:2;"><rect id="Artboard1" x="0" y="0" width="39249.8" height="13532.8" style="fill:none;"/><g><path d="M10594.4,499.892c-69.008,13.021 -332.029,89.841 -798.175,234.375c-151.042,46.875 -2289.06,700.521 -2419.27,739.583c-552.083,165.363 -1001.3,311.196 -1074.22,347.654c-311.195,156.25 -555.987,457.034 -654.945,800.784l-28.646,97.654l-3.909,2177.08c-1.3,1197.92 -6.508,2178.39 -9.112,2178.39c-3.909,-0 -42.971,-14.325 -87.242,-32.555c-179.687,-70.312 -231.771,-78.125 -531.25,-78.125c-261.717,0 -290.362,2.605 -442.708,37.763c-415.363,95.05 -776.042,277.342 -1045.57,528.646c-61.2,57.291 -117.188,104.166 -123.7,104.166c-32.55,0 -104.167,-420.575 -118.488,-694.012c-48.179,-928.383 260.417,-1799.48 882.813,-2493.49c174.479,-194.012 500,-473.958 667.967,-572.916l36.458,-20.834l0,-997.395l-80.729,40.362c-1076.82,542.971 -1881.51,1509.12 -2217.45,2661.46c-115.888,399.742 -165.367,750 -165.367,1184.9c-1.3,401.042 33.854,696.617 126.305,1061.2c346.354,1373.7 1351.56,2493.49 2688.8,2994.79c308.595,115.883 742.187,214.842 1080.73,247.396c179.687,16.925 647.137,16.925 820.312,-0c1187.5,-119.792 2234.38,-690.104 2979.17,-1625c58.596,-72.917 111.979,-144.534 119.792,-158.854c13.02,-23.438 11.72,-23.438 -71.613,-0c-308.596,88.541 -744.792,126.3 -1050.78,91.145l-113.28,-13.02l-114.583,92.445c-242.187,195.313 -584.637,398.438 -856.771,506.513c-580.729,233.071 -1231.77,308.592 -1829.43,213.542c-402.341,-63.805 -847.654,-220.055 -1175.78,-412.763c-117.188,-70.312 -144.533,-100.258 -89.846,-100.258c45.575,-0 329.429,-104.167 446.617,-164.063c186.196,-92.45 326.821,-191.408 471.354,-329.429c264.321,-252.604 420.571,-528.646 477.862,-841.146c9.117,-53.383 13.021,-658.854 14.325,-1920.57c0.001,-1126.3 5.209,-1877.6 13.021,-1932.29c6.509,-52.084 27.342,-117.188 46.875,-153.646c46.875,-85.938 179.688,-207.033 279.946,-256.513c67.708,-32.55 867.188,-286.458 2777.35,-882.812c151.042,-46.875 343.75,-106.771 429.688,-134.113c425.779,-135.416 466.145,-147.137 546.874,-147.137c138.021,-0 212.238,54.687 239.584,174.479c16.925,69.013 19.529,2967.45 3.904,2967.45c-6.508,0 -57.292,-16.929 -114.583,-37.762c-197.917,-71.613 -295.571,-85.938 -610.675,-85.938c-251.305,0 -304.688,3.908 -436.2,31.25c-429.688,88.542 -802.084,283.854 -1087.24,567.708c-270.833,270.834 -410.158,540.367 -450.521,872.396c-26.041,216.146 26.042,460.938 140.625,647.138c65.104,109.375 217.446,266.925 329.425,341.146c324.221,218.75 773.438,308.591 1233.08,248.695c497.396,-66.404 917.967,-266.925 1247.4,-597.654c283.854,-285.158 417.967,-555.991 449.217,-906.25c9.116,-100.262 13.021,-1136.72 10.416,-3118.49c-3.904,-2963.54 -3.904,-2968.75 -31.25,-3046.88c-57.291,-166.667 -131.508,-266.925 -253.904,-346.355c-119.791,-75.52 -325.521,-115.883 -472.658,-89.841Z" style="fill:#f20;fill-rule:nonzero;"/><path d="M6139.96,558.483c-1298.18,125 -2430.99,589.846 -3434.9,1408.86c-213.541,174.479 -639.325,596.354 -811.2,804.687c-354.166,429.688 -601.562,812.5 -837.237,1298.18c-268.229,552.084 -440.104,1082.03 -533.854,1651.04c-59.896,355.467 -79.429,567.708 -88.542,930.987c-32.554,1395.83 391.925,2727.87 1226.56,3854.17c251.3,339.846 630.208,748.7 944.008,1018.23c877.604,753.909 1954.43,1255.21 3082.03,1434.9c572.917,92.45 1214.84,104.167 1774.74,32.554c1798.18,-226.562 3416.67,-1227.87 4420.58,-2733.08c526.042,-789.062 855.467,-1641.92 989.583,-2565.1c16.925,-114.583 27.342,-210.937 23.438,-214.842c-3.908,-3.908 -16.929,7.813 -28.646,26.042c-42.971,66.404 -269.533,335.938 -371.096,442.708c-230.466,243.488 -563.8,533.855 -809.896,705.73c-89.841,62.5 -97.654,72.916 -136.716,165.362c-253.909,611.979 -647.138,1197.92 -1131.51,1682.29c-425.779,425.783 -868.487,746.096 -1388.02,1005.21c-1386.72,691.408 -2983.07,736.979 -4419.25,126.304c-592.445,-251.304 -1117.19,-602.866 -1593.75,-1067.71c-462.238,-450.521 -798.175,-911.458 -1069.01,-1464.85c-652.346,-1335.94 -710.937,-2878.9 -161.458,-4260.42c411.458,-1033.85 1162.76,-1932.29 2110.68,-2522.13c324.221,-201.825 692.708,-380.208 1052.08,-507.812l136.721,-49.48l78.125,-111.979c114.583,-166.666 347.654,-394.533 519.529,-509.116c256.513,-170.571 294.271,-186.196 989.583,-398.438c294.271,-89.842 536.459,-166.667 540.367,-169.271c19.529,-20.833 -54.687,-24.737 -451.825,-27.341c-294.271,-2.605 -498.696,2.604 -621.092,14.32l-0.029,0Z" style="fill:#fff;fill-rule:nonzero;"/><path d="M22369.1,4393.12c-141.929,23.438 -272.137,131.508 -322.917,268.229c-28.645,75.521 -28.645,83.333 -23.437,636.717c6.508,600.262 6.508,610.679 82.029,846.354c97.658,305.992 307.292,618.492 544.271,812.5c187.5,153.646 417.971,279.95 621.096,342.45l98.958,29.946l9.113,518.229c10.416,561.2 11.72,571.617 85.937,680.992c179.688,259.112 589.846,218.75 727.867,-72.917l33.854,-71.617l-0,-524.737l1.3,-524.742l134.117,-45.571c470.05,-157.554 835.937,-480.471 1049.48,-923.179c158.854,-332.029 177.083,-441.404 175.779,-1121.09c-0,-548.18 -1.3,-566.409 -59.896,-656.25c-88.542,-134.117 -199.217,-196.617 -352.862,-197.917c-143.23,-1.304 -261.721,57.292 -345.055,170.571c-78.125,108.075 -79.425,114.583 -88.541,710.937c-7.813,501.304 -10.417,553.388 -35.154,634.117c-96.355,307.292 -304.688,509.112 -615.888,592.446c-119.792,32.554 -453.125,32.554 -572.917,-0c-308.591,-82.029 -522.133,-290.363 -613.279,-595.05c-27.346,-92.45 -29.95,-128.909 -36.458,-644.534l-7.813,-546.875l-33.854,-71.612c-48.179,-102.867 -105.471,-162.763 -197.916,-207.033c-89.846,-41.667 -167.971,-54.688 -257.813,-40.363Z" style="fill:#fff;fill-rule:nonzero;"/><path d="M26780.6,4394.42c-152.345,24.741 -294.27,149.741 -333.333,295.575c-10.417,37.758 -14.325,591.146 -14.325,1861.98l0,1809.9l27.346,75.521c101.562,270.833 462.237,354.166 675.779,153.645c69.013,-65.104 111.979,-143.229 130.208,-239.583c7.813,-40.367 13.021,-351.563 13.021,-756.513l0,-688.8l1743.49,0.001l3.904,731.77l3.908,733.071l37.759,80.729c165.366,358.075 680.991,322.917 790.366,-54.687c19.53,-63.8 15.625,-3664.06 -2.604,-3717.45c-40.366,-115.888 -152.346,-231.771 -261.721,-268.229c-149.737,-49.479 -324.216,-11.721 -430.987,92.446c-71.617,71.616 -109.375,147.137 -126.304,248.7c-7.813,42.966 -13.021,354.166 -13.021,691.404l-0,615.887l-1744.79,0l0,-631.512c0,-763.021 -3.904,-787.759 -131.508,-916.667c-82.033,-82.029 -125,-101.562 -278.646,-123.696c-14.325,-2.604 -54.687,0 -88.542,6.509Z" style="fill:#fff;fill-rule:nonzero;"/><path d="M31064.4,4394.42c-147.138,23.437 -282.554,139.325 -333.334,285.158c-10.416,33.854 -14.325,493.488 -14.325,1863.28l0,1819.01l27.346,75.521c101.563,272.133 462.238,354.166 677.084,152.341c36.458,-33.854 75.52,-88.542 97.654,-138.021l37.762,-80.729l3.904,-1764.32c2.605,-1104.17 -1.3,-1795.58 -9.112,-1846.35c-16.929,-105.471 -53.388,-182.292 -122.396,-250c-79.429,-80.729 -123.7,-100.262 -276.042,-122.396c-14.325,-2.604 -54.687,0 -88.541,6.509Z" style="fill:#fff;fill-rule:nonzero;"/><path d="M38158.2,4398.33c-132.813,32.55 -222.659,105.467 -282.555,226.563l-42.966,87.237l-0,3671.88l33.854,71.617c42.967,91.146 115.883,164.062 207.029,207.029c97.658,46.875 263.021,48.179 352.867,3.908c91.146,-44.27 158.854,-109.375 200.521,-192.708l39.062,-76.825l3.904,-1832.03c2.604,-1824.22 2.604,-1832.03 -23.437,-1903.65c-72.917,-192.708 -292.967,-311.2 -488.279,-263.021Z" style="fill:#fff;fill-rule:nonzero;"/><path d="M17568.3,4432.17c-289.062,62.5 -514.32,187.5 -725.258,399.737c-216.146,220.054 -351.562,513.021 -384.117,835.938c-16.925,178.387 -18.229,2615.89 0,2709.64c18.23,96.354 61.2,174.479 127.605,236.979c87.241,79.425 158.854,106.771 282.554,108.071c92.446,0 114.583,-5.208 191.404,-42.967c101.562,-49.479 167.971,-122.395 207.033,-223.958c24.738,-63.804 24.738,-111.979 24.738,-1352.87c-0,-707.029 6.512,-1332.03 13.021,-1389.32c35.158,-307.292 213.541,-460.938 540.366,-460.938c272.134,0 437.5,106.771 519.529,332.029c9.117,27.346 15.625,472.659 20.834,1425.78l6.512,1386.72l33.854,72.917c46.875,98.958 117.188,173.179 204.425,216.146c63.805,31.25 89.846,36.458 184.896,36.458c91.146,0 122.396,-5.208 175.784,-32.55c93.75,-45.575 179.687,-136.721 213.541,-226.562c27.342,-75.521 27.342,-75.521 27.342,-1352.87c-0,-770.833 5.208,-1325.52 14.325,-1395.83c33.854,-304.688 217.446,-462.238 536.458,-462.238c287.759,0 451.821,111.979 527.342,358.071c18.229,55.992 20.833,248.7 24.742,1419.27c5.208,1483.08 1.3,1416.67 82.029,1527.35c20.833,28.646 63.804,70.312 97.658,93.75c220.05,151.041 514.321,70.312 626.3,-173.18l37.763,-80.729l3.904,-1269.53c3.908,-1277.35 -1.3,-1479.17 -42.967,-1656.25c-55.992,-239.583 -194.012,-484.375 -375,-662.762c-434.896,-429.688 -1095.05,-526.042 -1632.81,-238.28c-104.167,55.988 -242.188,152.342 -277.346,192.709c-20.834,27.341 -57.292,26.041 -79.425,-1.304c-83.334,-100.259 -378.909,-259.113 -578.125,-311.196c-182.292,-48.179 -454.429,-55.992 -628.909,-18.229Z" style="fill:#fff;fill-rule:nonzero;"/><path d="M34792.3,4432.17c-285.154,6.508 -294.271,7.812 -358.071,40.362c-130.208,69.013 -200.521,164.063 -226.563,304.688c-19.533,102.866 -19.533,3475.26 -1.304,3575.52c39.063,204.429 190.104,337.241 397.138,347.658c179.687,9.112 348.958,-97.659 408.854,-261.721c26.042,-72.917 27.342,-95.05 27.342,-712.238l-0,-636.72l700.52,-3.905l699.221,-3.908l74.217,-36.458c143.229,-70.313 231.771,-216.146 231.771,-380.209c-0,-167.966 -91.146,-309.895 -244.792,-381.508l-74.217,-35.158l-692.708,-3.904l-694.012,-3.909l-0,-960.937l811.2,-3.904l809.895,-3.909l80.73,-37.758c243.487,-111.979 321.612,-397.138 171.875,-623.7c-22.138,-33.854 -66.409,-79.425 -98.959,-101.563c-111.979,-78.125 -96.354,-76.82 -947.916,-80.729c-429.688,-1.3 -912.763,0 -1074.22,3.909Z" style="fill:#fff;fill-rule:nonzero;"/><path d="M32703.8,7809.79c-199.217,83.333 -315.104,260.416 -304.688,463.541c9.117,178.384 106.771,326.821 270.834,412.759c65.104,33.854 83.333,36.458 208.333,36.458c119.792,-0 144.534,-3.904 200.521,-32.55c88.542,-45.575 186.2,-135.417 221.354,-207.033c127.604,-255.209 29.95,-544.271 -223.958,-662.759c-108.071,-50.783 -265.625,-54.687 -372.396,-10.416Z" style="fill:#fff;fill-rule:nonzero;"/></g></svg>